# xmcd
#
# Track frame offsets:
# 150
# 13202
# 27831
# 40799
# 55363
# 65386
# 77384
# 92048
# 104214
# 120575
# 132020
# 146627
# 164741
# 179839
# 190793
# 206006
# 220929
# 237176
# 248925
#
# Disc length: 3465 seconds
#
#
# Revision: 0
# Processed by: cddbd v1.5.2PL0 Copyright (c) Steve Scherf et al.
# Submitted via: FreeRIP 2.70 
#
DISCID=180d8713
DTITLE=JOÃO VITOR E CIA - AVIAO SERTANEJO-2010
DYEAR=2010
DGENRE=Country
TTITLE0=BATE PALMA PU TAIADA
TTITLE1=DELEGADA
TTITLE2=PENSE EM MIN
TTITLE3=CE TA LOUCO
TTITLE4=E DAI
TTITLE5=SAI PRA LÁ
TTITLE6=E DISSO QUE O VELHO GOSTA
TTITLE7=FEIRA DE MANGAIA
TTITLE8=DÁ BEIJINHO
TTITLE9=SERÁ QUE VAI ROLA
TTITLE10=CARA ERADO
TTITLE11=MADRI
TTITLE12=TAPA NA CARAS
TTITLE13=COISAS ESOTERICAS
TTITLE14=QUEM AMA CUIDA
TTITLE15=CACHACEIROS DE PLANTAO
TTITLE16=QUER ME ENCONTRAR VAI NO BUTECO
TTITLE17=METEORO
TTITLE18=TO DE CARA
EXTD=GRAVADO AO VIVO NO FORROZÃO SABAINI
EXTT0=
EXTT1=
EXTT2=
EXTT3=
EXTT4=
EXTT5=
EXTT6=
EXTT7=
EXTT8=
EXTT9=
EXTT10=
EXTT11=
EXTT12=
EXTT13=
EXTT14=
EXTT15=
EXTT16=
EXTT17=
EXTT18=
PLAYORDER=
